:FULLY-SPECIFIED
:FORCE-ALL-JOINTS-BE-3DOF
:DEGREES
918
root -0.208812 14.1228 -36.3517 372.265 -27.0419 343.483
lfemur -64.1821 31.7666 -0.275054
ltibia 70.182 -0 0
lfoot -6.35934 -9.5786 0.00516403
ltoes -8.88973 0 0
rfemur 6.23988 -8.15983 13.2801
rtibia 38.8056 -0 0
rfoot -22.4965 -28.9442 8.34589e-05
rtoes -27.4781 0 0
lowerback 11.4395 0.0725354 6.52778
upperback -1.48379 1.41991 5.63686
thorax -8.03699 0.515546 2.08282
lowerneck -3.86063 7.688 2.61636
upperneck 4.14042 10.1396 -0.557218
head 2.12495 5.07953 -0.29487
lclavicle -2.15029e-14 2.17036e-14 -6.78615e-32
lhumerus 13.2551 15.1733 73.5171
lradius 19.4755 -0 0
lwrist -45.3063 0 0
lhand -28.4188 29.0387 0
lfingers 7.12502 0 0
lthumb -1.35834 58.9474 -0.000345249
rclavicle -3.62049e-14 -2.98845e-14 4.02482e-31
rhumerus -76.8801 21.5247 -96.434
rradius 109.981 0 0
rwrist -68.2008 0 0
rhand -11.0995 -24.494 -3.68934e-05
rfingers 7.12502 -0 0
rthumb 14.8528 -53.9123 5.46377e-05
919
root -0.201418 14.1112 -36.3476 372.258 -26.9245 343.408
lfemur -64.2132 31.7834 -0.291454
ltibia 70.4082 -0 0
lfoot -6.41068 -9.69794 0.00543624
ltoes -8.54199 0 0
rfemur 6.3377 -8.20795 13.2701
rtibia 38.8032 -0 0
rfoot -22.4811 -28.9363 7.29208e-05
rtoes -27.573 0 0
lowerback 11.4396 0.0291261 6.58995
upperback -1.48463 1.37589 5.71519
thorax -8.03989 0.492832 2.14067
lowerneck -3.90316 7.6932 2.64047
upperneck 4.22089 10.1469 -0.60875
head 2.16383 5.08225 -0.310377
lclavicle -2.15648e-14 1.96539e-14 -5.81998e-32
lhumerus 13.1843 14.2662 73.5527
lradius 20.0151 -0 0
lwrist -45.328 0 0
lhand -28.4023 29.0504 0.000483122
lfingers 7.12502 -0 0
lthumb -1.32691 58.9404 0
rclavicle -3.58939e-14 -3.21594e-14 4.40997e-31
rhumerus -76.8963 21.5079 -96.3766
rradius 109.983 -0 0
rwrist -68.1939 0 0
rhand -11.0862 -24.5065 -7.73486e-05
rfingers 7.12502 0 0
rthumb 14.8397 -53.9236 9.1129e-05
920
root -0.194865 14.1033 -36.3351 372.213 -26.9933 343.373
lfemur -64.2633 31.8103 -0.317877
ltibia 70.6171 -0 0
lfoot -6.46295 -9.81947 0.00560354
ltoes -8.15749 0 0
rfemur 6.42643 -8.25157 13.2609
rtibia 38.8016 -0 0
rfoot -22.4667 -28.9288 6.11545e-05
rtoes -27.6578 0 0
lowerback 11.3876 0.0268509 6.61333
upperback -1.45583 1.37065 5.76385
thorax -7.97982 0.491457 2.17994
lowerneck -3.90984 7.72345 2.65339
upperneck 4.29391 10.1892 -0.65779
head 2.19367 5.10238 -0.323813
lclavicle -2.16219e-14 1.77629e-14 -4.73221e-32
lhumerus 13.0709 12.8233 73.6115
lradius 20.5702 -0 0
lwrist -45.0943 0 0
lhand -28.3542 29.0844 0.00186785
lfingers 7.12502 -0 0
lthumb -1.30913 58.9527 0.000473609
rclavicle -3.55723e-14 -3.45115e-14 4.67835e-31
rhumerus -76.9121 21.4916 -96.3208
rradius 109.987 -0 0
rwrist -68.1871 0 0
rhand -11.0685 -24.5229 -0.000126318
rfingers 7.12502 -0 0
rthumb 14.8238 -53.9374 0.000132271
921
root -0.187022 14.0946 -36.3212 372.222 -26.9796 343.346
lfemur -64.331 31.8465 -0.353592
ltibia 70.8061 -0 0
lfoot -6.51569 -9.94208 0.00565998
ltoes -7.7444 0 0
rfemur 6.50485 -8.29011 13.2528
rtibia 38.8011 0 0
rfoot -22.4535 -28.922 4.87725e-05
rtoes -27.731 0 0
lowerback 11.2822 -0.00685124 6.67039
upperback -1.45189 1.32459 5.8152
thorax -7.91592 0.468645 2.21092
lowerneck -3.90288 7.74249 2.7256
upperneck 4.35596 10.2174 -0.782302
head 2.22542 5.11452 -0.371312
lclavicle -2.16732e-14 1.6066e-14 -3.5956e-32
lhumerus 12.9186 10.9014 73.6938
lradius 21.1347 -0 0
lwrist -44.4167 0 0
lhand -28.277 29.1391 0.00403375
lfingers 7.12502 -0 0
lthumb -1.25759 58.9883 0.00182477
rclavicle -3.52443e-14 -3.691e-14 4.81608e-31
rhumerus -76.9273 21.4759 -96.2672
rradius 109.995 -0 0
rwrist -68.1804 0 0
rhand -11.0471 -24.5427 -0.000178714
rfingers 7.12502 -0 0
rthumb 14.8053 -53.9534 0.000175165
